<svg width="25" height="25" viewBox="0 0 25 25" fill="none" xmlns="http://www.w3.org/2000/svg">
<rect x="0.5" y="0.5" width="24" height="24" rx="2.12387" fill="white"/>
<path d="M4.6875 0H20.3125C21.6053 0 22.7097 0.458054 23.6258 1.37416C24.5419 2.29027 25 3.39472 25 4.6875V20.3125C25 21.6053 24.5419 22.7097 23.6258 23.6258C22.7097 24.5419 21.6053 25 20.3125 25H4.6875C3.39472 25 2.29027 24.5419 1.37416 23.6258C0.458054 22.7097 0 21.6053 0 20.3125V4.6875C0 3.39472 0.458054 2.29027 1.37416 1.37416C2.29027 0.458054 3.39472 0 4.6875 0ZM9.41685 14.7042H14.0765C15.4436 14.7042 16.6109 14.1927 17.5781 13.1696C18.5454 12.1466 19.029 10.9049 19.029 9.44475C19.029 8.01246 18.5547 6.77548 17.606 5.73382C16.6388 4.69215 15.4622 4.17132 14.0765 4.17132H7.00335C6.72433 4.17132 6.48251 4.27362 6.2779 4.47824C6.07329 4.68285 5.97098 4.92932 5.97098 5.21763V19.7824C5.97098 20.0707 6.07329 20.3172 6.2779 20.5218C6.48251 20.7264 6.72433 20.8287 7.00335 20.8287H8.37054C8.65885 20.8287 8.90532 20.7264 9.10993 20.5218C9.31455 20.3172 9.41685 20.0707 9.41685 19.7824V14.7042ZM9.41685 7.29632H14.0765C14.5415 7.29632 14.9368 7.50558 15.2623 7.92411C15.5878 8.34263 15.7506 8.84952 15.7506 9.44475C15.7506 10.0307 15.5855 10.5329 15.2553 10.9515C14.9251 11.37 14.5322 11.5792 14.0765 11.5792H9.41685V7.29632Z" fill="#292929"/>
<rect x="0.5" y="0.5" width="24" height="24" rx="2.12387" stroke="white"/>
</svg>
