<svg width="26" height="26" viewBox="0 0 26 26" fill="none" xmlns="http://www.w3.org/2000/svg">
<path d="M13.3125 7.44515C12.152 7.44515 11.0177 7.78927 10.0528 8.43398C9.0879 9.07869 8.33586 9.99505 7.89178 11.0672C7.44769 12.1393 7.3315 13.319 7.55789 14.4572C7.78429 15.5953 8.3431 16.6408 9.16366 17.4613C9.98422 18.2819 11.0297 18.8407 12.1678 19.0671C13.306 19.2935 14.4857 19.1773 15.5578 18.7332C16.63 18.2891 17.5463 17.5371 18.191 16.5722C18.8357 15.6073 19.1798 14.473 19.1798 13.3125C19.1781 11.7569 18.5594 10.2656 17.4594 9.1656C16.3594 8.06564 14.8681 7.44691 13.3125 7.44515ZM13.3125 17.6492C12.4548 17.6492 11.6163 17.3949 10.9031 16.9184C10.19 16.4418 9.63412 15.7645 9.30588 14.9721C8.97764 14.1797 8.89176 13.3077 9.05909 12.4664C9.22643 11.6252 9.63946 10.8525 10.246 10.246C10.8525 9.63946 11.6252 9.22643 12.4664 9.05909C13.3077 8.89176 14.1797 8.97764 14.9721 9.30588C15.7645 9.63412 16.4418 10.19 16.9184 10.9031C17.3949 11.6163 17.6492 12.4548 17.6492 13.3125C17.6479 14.4623 17.1906 15.5646 16.3776 16.3776C15.5646 17.1906 14.4623 17.6479 13.3125 17.6492ZM18.9247 0.8125H7.70025C5.87415 0.814593 4.12344 1.54094 2.83219 2.83219C1.54094 4.12344 0.814593 5.87415 0.8125 7.70025V18.9247C0.814593 20.7508 1.54094 22.5016 2.83219 23.7928C4.12344 25.0841 5.87415 25.8104 7.70025 25.8125H18.9247C20.7508 25.8104 22.5016 25.0841 23.7928 23.7928C25.0841 22.5016 25.8104 20.7508 25.8125 18.9247V7.70025C25.8104 5.87415 25.0841 4.12344 23.7928 2.83219C22.5016 1.54094 20.7508 0.814593 18.9247 0.8125ZM24.2819 18.9247C24.2803 20.3451 23.7154 21.7067 22.7111 22.7111C21.7067 23.7154 20.3451 24.2803 18.9247 24.2819H7.70025C6.27994 24.2803 4.91825 23.7154 3.91394 22.7111C2.90962 21.7067 2.3447 20.3451 2.34311 18.9247V7.70025C2.3447 6.27994 2.90962 4.91825 3.91394 3.91394C4.91825 2.90962 6.27994 2.3447 7.70025 2.34311H18.9247C20.3451 2.3447 21.7067 2.90962 22.7111 3.91394C23.7154 4.91825 24.2803 6.27994 24.2819 7.70025V18.9247ZM21.2207 6.67985C21.2207 6.93212 21.1459 7.17873 21.0057 7.38848C20.8655 7.59824 20.6663 7.76172 20.4333 7.85826C20.2002 7.9548 19.9437 7.98006 19.6963 7.93085C19.4489 7.88163 19.2216 7.76015 19.0432 7.58177C18.8648 7.40339 18.7434 7.17611 18.6942 6.92869C18.6449 6.68126 18.6702 6.4248 18.7667 6.19173C18.8633 5.95866 19.0268 5.75945 19.2365 5.6193C19.4463 5.47914 19.6929 5.40434 19.9452 5.40434C20.2833 5.40474 20.6075 5.53926 20.8466 5.77837C21.0857 6.01749 21.2203 6.34168 21.2207 6.67985Z" fill="white"/>
</svg>
